<svg xmlns="http://www.w3.org/2000/svg" xmlns:xlink="http://www.w3.org/1999/xlink" width="500" zoomAndPan="magnify" viewBox="0 0 375 374.999991" height="500" preserveAspectRatio="xMidYMid meet" version="1.0"><defs><g/><clipPath id="46db75c4c2"><path d="M 27.25 5 L 357.25 5 L 357.25 374 L 27.25 374 Z M 27.25 5 " clip-rule="nonzero"/></clipPath><clipPath id="5125faf281"><path d="M 43 143.589844 L 178 143.589844 L 178 190 L 43 190 Z M 43 143.589844 " clip-rule="nonzero"/></clipPath><clipPath id="43962b5e13"><path d="M 47 200 L 333 200 L 333 264.390625 L 47 264.390625 Z M 47 200 " clip-rule="nonzero"/></clipPath><clipPath id="62f0713c4b"><path d="M 27.25 4.246094 L 355.742188 4.246094 L 355.742188 370.632812 L 27.25 370.632812 Z M 27.25 4.246094 " clip-rule="nonzero"/></clipPath><clipPath id="bff0807fd5"><path d="M 179.335938 91.5625 L 329.335938 91.5625 L 329.335938 152.3125 L 179.335938 152.3125 Z M 179.335938 91.5625 " clip-rule="nonzero"/></clipPath><clipPath id="9af1bf3c2a"><path d="M 217.117188 114.449219 L 257.765625 114.449219 L 257.765625 149.382812 L 217.117188 149.382812 Z M 217.117188 114.449219 " clip-rule="nonzero"/></clipPath><clipPath id="2f82dfc6de"><path d="M 257.765625 131.914062 L 247.605469 149.382812 L 227.28125 149.382812 L 217.117188 131.914062 L 227.28125 114.449219 L 247.605469 114.449219 L 257.765625 131.914062 " clip-rule="nonzero"/></clipPath><clipPath id="5f1dbc51f2"><path d="M 285.464844 114.449219 L 326.117188 114.449219 L 326.117188 149.382812 L 285.464844 149.382812 Z M 285.464844 114.449219 " clip-rule="nonzero"/></clipPath><clipPath id="470ea6f90a"><path d="M 326.117188 131.914062 L 315.953125 149.382812 L 295.628906 149.382812 L 285.464844 131.914062 L 295.628906 114.449219 L 315.953125 114.449219 L 326.117188 131.914062 " clip-rule="nonzero"/></clipPath><clipPath id="b84a7899e3"><path d="M 227.742188 124.605469 L 248.742188 124.605469 L 248.742188 141.105469 L 227.742188 141.105469 Z M 227.742188 124.605469 " clip-rule="nonzero"/></clipPath><clipPath id="7838c83890"><path d="M 182.761719 94.730469 L 223.414062 94.730469 L 223.414062 129.664062 L 182.761719 129.664062 Z M 182.761719 94.730469 " clip-rule="nonzero"/></clipPath><clipPath id="24952a052a"><path d="M 223.414062 112.199219 L 213.25 129.664062 L 192.925781 129.664062 L 182.761719 112.199219 L 192.925781 94.730469 L 213.25 94.730469 L 223.414062 112.199219 " clip-rule="nonzero"/></clipPath><clipPath id="4462cfed63"><path d="M 251.472656 94.730469 L 292.121094 94.730469 L 292.121094 129.664062 L 251.472656 129.664062 Z M 251.472656 94.730469 " clip-rule="nonzero"/></clipPath><clipPath id="56a200671a"><path d="M 292.121094 112.199219 L 281.957031 129.664062 L 261.632812 129.664062 L 251.472656 112.199219 L 261.632812 94.730469 L 281.957031 94.730469 L 292.121094 112.199219 " clip-rule="nonzero"/></clipPath><clipPath id="f740984e0e"><path d="M 295.121094 124.605469 L 316 124.605469 L 316 141.105469 L 295.121094 141.105469 Z M 295.121094 124.605469 " clip-rule="nonzero"/></clipPath><clipPath id="4612168042"><path d="M 23.609375 0.179688 L 359.601562 0.179688 L 359.601562 374.820312 L 23.609375 374.820312 Z M 23.609375 0.179688 " clip-rule="nonzero"/></clipPath></defs><g clip-path="url(#46db75c4c2)"><path fill="#ffffff" d="M 337.457031 296.414062 L 274.753906 332.625 L 212.050781 368.832031 C 201.121094 375.144531 183.378906 375.144531 172.449219 368.832031 L 109.746094 332.625 L 47.039062 296.414062 C 36.113281 290.101562 27.238281 274.730469 27.238281 262.109375 L 27.238281 117.269531 C 27.238281 104.652344 36.113281 89.277344 47.039062 82.964844 L 109.746094 46.757812 L 172.449219 10.546875 C 183.378906 4.238281 201.121094 4.238281 212.050781 10.546875 L 274.753906 46.757812 L 337.457031 82.964844 C 348.386719 89.277344 357.257812 104.652344 357.257812 117.269531 L 357.257812 262.109375 C 357.257812 274.730469 348.386719 290.101562 337.457031 296.414062 Z M 337.457031 296.414062 " fill-opacity="1" fill-rule="nonzero"/></g><g clip-path="url(#5125faf281)"><path fill="#252f3e" d="M 78.371094 175.453125 C 78.371094 177.261719 78.566406 178.722656 78.910156 179.796875 C 79.300781 180.871094 79.785156 182.042969 80.472656 183.3125 C 80.714844 183.703125 80.8125 184.09375 80.8125 184.433594 C 80.8125 184.921875 80.519531 185.410156 79.886719 185.898438 L 76.808594 187.949219 C 76.367188 188.242188 75.929688 188.386719 75.539062 188.386719 C 75.050781 188.386719 74.5625 188.144531 74.074219 187.703125 C 73.390625 186.972656 72.800781 186.191406 72.316406 185.410156 C 71.824219 184.582031 71.335938 183.652344 70.800781 182.53125 C 66.992188 187.019531 62.203125 189.265625 56.441406 189.265625 C 52.339844 189.265625 49.066406 188.09375 46.671875 185.753906 C 44.28125 183.410156 43.058594 180.285156 43.058594 176.382812 C 43.058594 172.234375 44.523438 168.863281 47.503906 166.328125 C 50.480469 163.789062 54.4375 162.519531 59.46875 162.519531 C 61.128906 162.519531 62.839844 162.667969 64.644531 162.910156 C 66.453125 163.15625 68.308594 163.542969 70.261719 163.984375 L 70.261719 160.421875 C 70.261719 156.710938 69.480469 154.125 67.96875 152.613281 C 66.40625 151.097656 63.765625 150.367188 60.007812 150.367188 C 58.296875 150.367188 56.539062 150.5625 54.730469 151 C 52.925781 151.441406 51.167969 151.976562 49.457031 152.660156 C 48.675781 153.003906 48.089844 153.199219 47.746094 153.296875 C 47.40625 153.390625 47.160156 153.441406 46.964844 153.441406 C 46.28125 153.441406 45.941406 152.953125 45.941406 151.929688 L 45.941406 149.535156 C 45.941406 148.753906 46.039062 148.171875 46.28125 147.828125 C 46.527344 147.488281 46.964844 147.144531 47.648438 146.804688 C 49.359375 145.925781 51.410156 145.191406 53.804688 144.605469 C 56.195312 143.972656 58.738281 143.679688 61.421875 143.679688 C 67.234375 143.679688 71.484375 144.996094 74.21875 147.632812 C 76.90625 150.269531 78.273438 154.269531 78.273438 159.640625 L 78.273438 175.453125 Z M 58.542969 182.871094 C 60.152344 182.871094 61.8125 182.582031 63.570312 181.996094 C 65.332031 181.410156 66.894531 180.335938 68.210938 178.871094 C 68.992188 177.945312 69.578125 176.917969 69.871094 175.746094 C 70.164062 174.574219 70.359375 173.160156 70.359375 171.5 L 70.359375 169.449219 C 68.945312 169.109375 67.429688 168.816406 65.867188 168.621094 C 64.304688 168.425781 62.789062 168.328125 61.277344 168.328125 C 58.003906 168.328125 55.609375 168.960938 54 170.28125 C 52.386719 171.597656 51.605469 173.453125 51.605469 175.894531 C 51.605469 178.1875 52.191406 179.894531 53.414062 181.066406 C 54.585938 182.289062 56.292969 182.871094 58.542969 182.871094 Z M 97.761719 188.144531 C 96.882812 188.144531 96.292969 187.996094 95.902344 187.65625 C 95.515625 187.363281 95.171875 186.679688 94.875 185.753906 L 83.402344 148.023438 C 83.109375 147.046875 82.960938 146.414062 82.960938 146.070312 C 82.960938 145.289062 83.351562 144.851562 84.132812 144.851562 L 88.921875 144.851562 C 89.847656 144.851562 90.484375 144.996094 90.824219 145.339844 C 91.214844 145.632812 91.507812 146.316406 91.800781 147.242188 L 100.003906 179.554688 L 107.628906 147.242188 C 107.871094 146.265625 108.164062 145.632812 108.554688 145.339844 C 108.945312 145.046875 109.625 144.851562 110.507812 144.851562 L 114.414062 144.851562 C 115.34375 144.851562 115.976562 144.996094 116.367188 145.339844 C 116.761719 145.632812 117.101562 146.316406 117.296875 147.242188 L 125.015625 179.945312 L 133.464844 147.242188 C 133.757812 146.265625 134.097656 145.632812 134.441406 145.339844 C 134.828125 145.046875 135.46875 144.851562 136.34375 144.851562 L 140.890625 144.851562 C 141.667969 144.851562 142.105469 145.242188 142.105469 146.070312 C 142.105469 146.316406 142.058594 146.558594 142.011719 146.851562 C 141.960938 147.144531 141.863281 147.535156 141.667969 148.074219 L 129.898438 185.800781 C 129.601562 186.777344 129.261719 187.414062 128.871094 187.707031 C 128.480469 188 127.84375 188.195312 127.015625 188.195312 L 122.816406 188.195312 C 121.886719 188.195312 121.253906 188.046875 120.863281 187.707031 C 120.46875 187.363281 120.128906 186.730469 119.933594 185.753906 L 112.363281 154.273438 L 104.84375 185.703125 C 104.597656 186.679688 104.304688 187.316406 103.917969 187.65625 C 103.523438 188 102.839844 188.144531 101.964844 188.144531 Z M 160.519531 189.460938 C 157.980469 189.460938 155.445312 189.167969 153 188.582031 C 150.558594 187.996094 148.652344 187.363281 147.382812 186.632812 C 146.601562 186.191406 146.0625 185.703125 145.867188 185.265625 C 145.671875 184.824219 145.574219 184.335938 145.574219 183.898438 L 145.574219 181.410156 C 145.574219 180.382812 145.964844 179.894531 146.699219 179.894531 C 146.992188 179.894531 147.285156 179.945312 147.578125 180.042969 C 147.875 180.140625 148.3125 180.335938 148.800781 180.53125 C 150.460938 181.261719 152.269531 181.847656 154.171875 182.238281 C 156.125 182.628906 158.03125 182.824219 159.984375 182.824219 C 163.0625 182.824219 165.453125 182.289062 167.117188 181.214844 C 168.777344 180.140625 169.652344 178.578125 169.652344 176.578125 C 169.652344 175.210938 169.214844 174.085938 168.339844 173.160156 C 167.457031 172.234375 165.796875 171.402344 163.402344 170.621094 L 156.320312 168.425781 C 152.753906 167.304688 150.121094 165.644531 148.507812 163.445312 C 146.894531 161.300781 146.0625 158.90625 146.0625 156.371094 C 146.0625 154.320312 146.5 152.515625 147.382812 150.953125 C 148.265625 149.390625 149.433594 148.023438 150.898438 146.949219 C 152.367188 145.828125 154.027344 144.996094 155.980469 144.410156 C 157.933594 143.824219 159.984375 143.582031 162.132812 143.582031 C 163.207031 143.582031 164.328125 143.632812 165.40625 143.777344 C 166.53125 143.921875 167.554688 144.117188 168.582031 144.3125 C 169.554688 144.558594 170.480469 144.800781 171.363281 145.09375 C 172.246094 145.386719 172.925781 145.679688 173.414062 145.972656 C 174.101562 146.363281 174.589844 146.753906 174.878906 147.195312 C 175.171875 147.585938 175.320312 148.121094 175.320312 148.804688 L 175.320312 151.097656 C 175.320312 152.125 174.929688 152.660156 174.199219 152.660156 C 173.808594 152.660156 173.171875 152.464844 172.34375 152.074219 C 169.554688 150.804688 166.433594 150.171875 162.964844 150.171875 C 160.179688 150.171875 157.980469 150.609375 156.46875 151.539062 C 154.953125 152.464844 154.171875 153.878906 154.171875 155.882812 C 154.171875 157.25 154.660156 158.417969 155.640625 159.347656 C 156.613281 160.273438 158.421875 161.203125 161.011719 162.03125 L 167.945312 164.226562 C 171.460938 165.351562 174.003906 166.914062 175.519531 168.914062 C 177.027344 170.914062 177.765625 173.207031 177.765625 175.746094 C 177.765625 177.84375 177.320312 179.75 176.492188 181.410156 C 175.617188 183.066406 174.441406 184.53125 172.925781 185.703125 C 171.414062 186.925781 169.605469 187.800781 167.503906 188.4375 C 165.308594 189.121094 163.015625 189.460938 160.519531 189.460938 Z M 160.519531 189.460938 " fill-opacity="1" fill-rule="nonzero"/></g><g clip-path="url(#43962b5e13)"><path fill="#ff9900" d="M 305.195312 229.382812 C 274.019531 252.398438 228.734375 264.617188 189.785156 264.617188 C 135.199219 264.617188 86.019531 244.441406 48.878906 210.917969 C 45.9375 208.269531 48.589844 204.671875 52.097656 206.75 C 92.273438 230.054688 141.835938 244.164062 193.09375 244.164062 C 227.679688 244.164062 265.6875 236.96875 300.640625 222.191406 C 305.863281 219.820312 310.3125 225.597656 305.191406 229.382812 Z M 318.183594 214.617188 C 314.203125 209.5 291.835938 212.15625 281.699219 213.386719 C 278.667969 213.765625 278.1875 211.109375 280.9375 209.121094 C 298.757812 196.625 328.03125 200.222656 331.441406 204.386719 C 334.863281 208.648438 330.503906 237.90625 313.824219 251.925781 C 311.265625 254.105469 308.792969 252.964844 309.933594 250.128906 C 313.722656 240.757812 322.164062 219.632812 318.183594 214.617188 Z M 318.183594 214.617188 " fill-opacity="1" fill-rule="nonzero"/></g><g fill="#242e3e" fill-opacity="1"><g transform="translate(181.105597, 187.887462)"><g><path d="M 6.4375 -31.984375 C 7.363281 -31.984375 8.160156 -31.765625 8.828125 -31.328125 C 9.503906 -30.890625 9.84375 -30.082031 9.84375 -28.90625 C 9.84375 -27.757812 9.503906 -26.957031 8.828125 -26.5 C 8.160156 -26.050781 7.363281 -25.828125 6.4375 -25.828125 C 5.476562 -25.828125 4.671875 -26.050781 4.015625 -26.5 C 3.359375 -26.957031 3.03125 -27.757812 3.03125 -28.90625 C 3.03125 -30.082031 3.359375 -30.890625 4.015625 -31.328125 C 4.671875 -31.765625 5.476562 -31.984375 6.4375 -31.984375 Z M 9.546875 -22.96875 L 9.546875 0 L 3.28125 0 L 3.28125 -22.96875 Z M 9.546875 -22.96875 "/></g></g></g><g fill="#242e3e" fill-opacity="1"><g transform="translate(193.936128, 187.887462)"><g><path d="M 30.25 -23.390625 C 32.863281 -23.390625 34.835938 -22.722656 36.171875 -21.390625 C 37.503906 -20.054688 38.171875 -17.921875 38.171875 -14.984375 L 38.171875 0 L 31.890625 0 L 31.890625 -13.421875 C 31.890625 -16.734375 30.738281 -18.390625 28.4375 -18.390625 C 26.789062 -18.390625 25.613281 -17.800781 24.90625 -16.625 C 24.207031 -15.445312 23.859375 -13.75 23.859375 -11.53125 L 23.859375 0 L 17.59375 0 L 17.59375 -13.421875 C 17.59375 -16.734375 16.441406 -18.390625 14.140625 -18.390625 C 12.398438 -18.390625 11.195312 -17.734375 10.53125 -16.421875 C 9.875 -15.117188 9.546875 -13.25 9.546875 -10.8125 L 9.546875 0 L 3.28125 0 L 3.28125 -22.96875 L 8.078125 -22.96875 L 8.921875 -20.03125 L 9.25 -20.03125 C 9.957031 -21.207031 10.921875 -22.0625 12.140625 -22.59375 C 13.359375 -23.125 14.628906 -23.390625 15.953125 -23.390625 C 17.628906 -23.390625 19.050781 -23.113281 20.21875 -22.5625 C 21.382812 -22.019531 22.289062 -21.175781 22.9375 -20.03125 L 23.484375 -20.03125 C 24.179688 -21.207031 25.15625 -22.0625 26.40625 -22.59375 C 27.65625 -23.125 28.9375 -23.390625 30.25 -23.390625 Z M 30.25 -23.390625 "/></g></g></g><g fill="#242e3e" fill-opacity="1"><g transform="translate(235.246212, 187.887462)"><g><path d="M 24.359375 -22.96875 L 24.359375 0 L 19.5625 0 L 18.71875 -2.953125 L 18.390625 -2.953125 C 17.660156 -1.765625 16.65625 -0.90625 15.375 -0.375 C 14.101562 0.15625 12.75 0.421875 11.3125 0.421875 C 8.84375 0.421875 6.863281 -0.242188 5.375 -1.578125 C 3.894531 -2.910156 3.15625 -5.050781 3.15625 -8 L 3.15625 -22.96875 L 9.421875 -22.96875 L 9.421875 -9.546875 C 9.421875 -7.890625 9.710938 -6.648438 10.296875 -5.828125 C 10.890625 -5.003906 11.832031 -4.59375 13.125 -4.59375 C 15.03125 -4.59375 16.332031 -5.242188 17.03125 -6.546875 C 17.738281 -7.847656 18.09375 -9.71875 18.09375 -12.15625 L 18.09375 -22.96875 Z M 24.359375 -22.96875 "/></g></g></g><g fill="#242e3e" fill-opacity="1"><g transform="translate(262.884425, 187.887462)"><g><path d="M 9.546875 0 L 3.28125 0 L 3.28125 -31.984375 L 9.546875 -31.984375 Z M 9.546875 0 "/></g></g></g><g fill="#242e3e" fill-opacity="1"><g transform="translate(275.714957, 187.887462)"><g><path d="M 12.703125 -23.4375 C 15.796875 -23.4375 18.160156 -22.769531 19.796875 -21.4375 C 21.441406 -20.101562 22.265625 -18.0625 22.265625 -15.3125 L 22.265625 0 L 17.890625 0 L 16.65625 -3.109375 L 16.5 -3.109375 C 15.507812 -1.878906 14.46875 -0.984375 13.375 -0.421875 C 12.28125 0.140625 10.78125 0.421875 8.875 0.421875 C 6.832031 0.421875 5.132812 -0.164062 3.78125 -1.34375 C 2.4375 -2.519531 1.765625 -4.359375 1.765625 -6.859375 C 1.765625 -9.296875 2.617188 -11.085938 4.328125 -12.234375 C 6.046875 -13.390625 8.613281 -14.039062 12.03125 -14.1875 L 16.03125 -14.3125 L 16.03125 -15.3125 C 16.03125 -16.519531 15.710938 -17.40625 15.078125 -17.96875 C 14.453125 -18.53125 13.578125 -18.8125 12.453125 -18.8125 C 11.328125 -18.8125 10.234375 -18.648438 9.171875 -18.328125 C 8.109375 -18.003906 7.039062 -17.601562 5.96875 -17.125 L 3.90625 -21.375 C 5.113281 -21.988281 6.472656 -22.484375 7.984375 -22.859375 C 9.503906 -23.242188 11.078125 -23.4375 12.703125 -23.4375 Z M 16.03125 -10.640625 L 13.59375 -10.5625 C 11.570312 -10.507812 10.164062 -10.144531 9.375 -9.46875 C 8.59375 -8.789062 8.203125 -7.90625 8.203125 -6.8125 C 8.203125 -5.863281 8.484375 -5.1875 9.046875 -4.78125 C 9.609375 -4.375 10.335938 -4.171875 11.234375 -4.171875 C 12.578125 -4.171875 13.710938 -4.566406 14.640625 -5.359375 C 15.566406 -6.160156 16.03125 -7.289062 16.03125 -8.75 Z M 16.03125 -10.640625 "/></g></g></g><g fill="#242e3e" fill-opacity="1"><g transform="translate(301.123609, 187.887462)"><g><path d="M 12.953125 -4.59375 C 13.660156 -4.59375 14.335938 -4.65625 14.984375 -4.78125 C 15.628906 -4.90625 16.273438 -5.078125 16.921875 -5.296875 L 16.921875 -0.625 C 16.242188 -0.320312 15.40625 -0.0703125 14.40625 0.125 C 13.414062 0.320312 12.332031 0.421875 11.15625 0.421875 C 9.78125 0.421875 8.550781 0.195312 7.46875 -0.25 C 6.382812 -0.695312 5.523438 -1.46875 4.890625 -2.5625 C 4.265625 -3.65625 3.953125 -5.203125 3.953125 -7.203125 L 3.953125 -18.265625 L 0.96875 -18.265625 L 0.96875 -20.90625 L 4.421875 -23.015625 L 6.234375 -27.859375 L 10.21875 -27.859375 L 10.21875 -22.96875 L 16.65625 -22.96875 L 16.65625 -18.265625 L 10.21875 -18.265625 L 10.21875 -7.203125 C 10.21875 -6.328125 10.46875 -5.671875 10.96875 -5.234375 C 11.476562 -4.804688 12.140625 -4.59375 12.953125 -4.59375 Z M 12.953125 -4.59375 "/></g></g></g><g fill="#242e3e" fill-opacity="1"><g transform="translate(319.380815, 187.887462)"><g><path d="M 12.75 -23.390625 C 15.914062 -23.390625 18.425781 -22.484375 20.28125 -20.671875 C 22.132812 -18.867188 23.0625 -16.296875 23.0625 -12.953125 L 23.0625 -9.9375 L 8.25 -9.9375 C 8.300781 -8.164062 8.820312 -6.773438 9.8125 -5.765625 C 10.8125 -4.753906 12.195312 -4.25 13.96875 -4.25 C 15.425781 -4.25 16.765625 -4.394531 17.984375 -4.6875 C 19.203125 -4.988281 20.457031 -5.445312 21.75 -6.0625 L 21.75 -1.21875 C 20.601562 -0.65625 19.410156 -0.242188 18.171875 0.015625 C 16.941406 0.285156 15.441406 0.421875 13.671875 0.421875 C 11.367188 0.421875 9.332031 -0.00390625 7.5625 -0.859375 C 5.800781 -1.710938 4.414062 -3.003906 3.40625 -4.734375 C 2.394531 -6.460938 1.890625 -8.65625 1.890625 -11.3125 C 1.890625 -13.976562 2.34375 -16.207031 3.25 -18 C 4.164062 -19.800781 5.4375 -21.148438 7.0625 -22.046875 C 8.695312 -22.941406 10.59375 -23.390625 12.75 -23.390625 Z M 12.796875 -18.9375 C 11.554688 -18.9375 10.539062 -18.539062 9.75 -17.75 C 8.96875 -16.96875 8.507812 -15.75 8.375 -14.09375 L 17.171875 -14.09375 C 17.140625 -15.46875 16.765625 -16.617188 16.046875 -17.546875 C 15.335938 -18.472656 14.253906 -18.9375 12.796875 -18.9375 Z M 12.796875 -18.9375 "/></g></g></g><g clip-path="url(#62f0713c4b)"><path fill="#242e3e" d="M 172.597656 11.457031 L 172.617188 11.460938 Z M 201.671875 9.78125 C 192.355469 7.234375 182.234375 8.398438 173.644531 13.289062 L 50.601562 83.382812 C 39.179688 89.890625 32.050781 102.097656 32.003906 115.234375 L 31.480469 257.464844 C 31.433594 270.523438 38.402344 282.746094 49.675781 289.355469 L 172.433594 361.359375 C 183.769531 368.007812 197.917969 368.097656 209.34375 361.589844 L 332.386719 291.5 C 343.8125 284.988281 350.941406 272.785156 350.988281 259.644531 L 351.507812 117.414062 C 351.5625 104.355469 344.589844 92.136719 333.3125 85.523438 L 210.554688 13.523438 C 207.738281 11.871094 204.746094 10.625 201.671875 9.78125 Z M 180.195312 369.171875 C 176.765625 368.234375 173.433594 366.84375 170.292969 365.003906 L 47.535156 293.003906 C 34.96875 285.628906 27.195312 272.007812 27.25 257.449219 L 27.773438 115.222656 C 27.824219 100.574219 35.769531 86.964844 48.507812 79.710938 L 171.550781 9.621094 C 184.285156 2.363281 200.050781 2.464844 212.695312 9.878906 L 335.457031 81.875 C 348.023438 89.25 355.796875 102.871094 355.742188 117.429688 L 355.21875 259.660156 C 355.164062 274.308594 347.222656 287.914062 334.484375 295.167969 L 211.4375 365.261719 C 201.867188 370.714844 190.582031 372.011719 180.195312 369.171875 " fill-opacity="1" fill-rule="nonzero"/></g><g clip-path="url(#bff0807fd5)"><path fill="#ff9900" d="M 317.558594 111.433594 L 294.691406 111.433594 L 283.253906 91.5625 L 259.730469 91.5625 L 248.292969 111.433594 L 226.082031 111.433594 L 214.644531 91.5625 L 191.121094 91.5625 L 179.359375 112 L 191.121094 132.4375 L 213.988281 132.4375 L 225.425781 152.308594 L 248.949219 152.308594 L 260.386719 132.4375 L 282.597656 132.4375 L 294.03125 152.308594 L 317.558594 152.308594 L 329.320312 131.871094 Z M 260.378906 92.695312 L 282.601562 92.695312 L 293.710938 111.996094 L 282.59375 131.304688 L 260.386719 131.304688 L 249.269531 111.996094 Z M 180.660156 112 L 191.773438 92.695312 L 213.992188 92.695312 L 225.101562 111.996094 L 213.988281 131.304688 L 191.773438 131.304688 Z M 248.296875 151.175781 L 226.074219 151.175781 L 214.96875 131.878906 L 226.082031 112.566406 L 248.292969 112.566406 L 259.40625 131.878906 Z M 316.90625 151.175781 L 294.683594 151.175781 L 283.578125 131.878906 L 294.691406 112.566406 L 316.90625 112.566406 L 328.019531 131.871094 Z M 316.90625 151.175781 " fill-opacity="1" fill-rule="nonzero"/></g><g clip-path="url(#9af1bf3c2a)"><g clip-path="url(#2f82dfc6de)"><path fill="#ff9900" d="M 217.117188 114.449219 L 257.765625 114.449219 L 257.765625 149.382812 L 217.117188 149.382812 Z M 217.117188 114.449219 " fill-opacity="1" fill-rule="nonzero"/></g></g><g clip-path="url(#5f1dbc51f2)"><g clip-path="url(#470ea6f90a)"><path fill="#ff9900" d="M 285.464844 114.449219 L 326.117188 114.449219 L 326.117188 149.382812 L 285.464844 149.382812 Z M 285.464844 114.449219 " fill-opacity="1" fill-rule="nonzero"/></g></g><g clip-path="url(#b84a7899e3)"><path fill="#ffffff" d="M 247.816406 125.203125 L 247.6875 125.105469 C 247.265625 124.761719 246.746094 124.617188 246.257812 124.664062 C 245.738281 124.714844 245.265625 124.941406 244.925781 125.347656 L 240.539062 130.527344 L 237.941406 133.671875 L 236.042969 135.96875 L 234.742188 134.582031 L 234.011719 133.816406 L 231.445312 131.128906 C 231.070312 130.738281 230.585938 130.542969 230.066406 130.511719 C 229.578125 130.480469 229.058594 130.691406 228.683594 131.046875 L 228.554688 131.179688 C 227.757812 131.910156 227.742188 133.183594 228.472656 133.964844 L 231.007812 136.636719 L 231.738281 137.433594 L 234.660156 140.511719 C 235.003906 140.851562 235.457031 141.082031 235.894531 141.097656 C 235.929688 141.097656 235.929688 141.097656 235.945312 141.097656 C 235.976562 141.097656 235.992188 141.097656 236.042969 141.097656 C 236.042969 141.097656 236.042969 141.097656 236.074219 141.097656 C 236.15625 141.097656 236.21875 141.097656 236.316406 141.097656 C 236.835938 141.050781 237.308594 140.820312 237.648438 140.414062 L 242.003906 135.234375 L 243.707031 133.164062 L 248.0625 127.988281 C 248.742188 127.15625 248.644531 125.917969 247.816406 125.203125 Z M 247.816406 125.203125 " fill-opacity="1" fill-rule="nonzero"/></g><g clip-path="url(#7838c83890)"><g clip-path="url(#24952a052a)"><path fill="#242e3e" d="M 182.761719 94.730469 L 223.414062 94.730469 L 223.414062 129.664062 L 182.761719 129.664062 Z M 182.761719 94.730469 " fill-opacity="1" fill-rule="nonzero"/></g></g><g clip-path="url(#4462cfed63)"><g clip-path="url(#56a200671a)"><path fill="#242e3e" d="M 251.472656 94.730469 L 292.121094 94.730469 L 292.121094 129.664062 L 251.472656 129.664062 Z M 251.472656 94.730469 " fill-opacity="1" fill-rule="nonzero"/></g></g><g clip-path="url(#f740984e0e)"><path fill="#ffffff" d="M 315.195312 125.203125 L 315.066406 125.105469 C 314.644531 124.761719 314.121094 124.617188 313.636719 124.664062 C 313.117188 124.714844 312.644531 124.941406 312.304688 125.347656 L 307.917969 130.527344 L 305.320312 133.671875 L 303.417969 135.96875 L 302.121094 134.582031 L 301.390625 133.816406 L 298.824219 131.128906 C 298.449219 130.738281 297.960938 130.542969 297.441406 130.511719 C 296.957031 130.480469 296.4375 130.691406 296.0625 131.046875 L 295.933594 131.179688 C 295.136719 131.910156 295.121094 133.183594 295.851562 133.964844 L 298.386719 136.636719 L 299.117188 137.433594 L 302.039062 140.511719 C 302.378906 140.851562 302.835938 141.082031 303.273438 141.097656 C 303.304688 141.097656 303.304688 141.097656 303.324219 141.097656 C 303.355469 141.097656 303.371094 141.097656 303.417969 141.097656 C 303.417969 141.097656 303.417969 141.097656 303.453125 141.097656 C 303.535156 141.097656 303.597656 141.097656 303.695312 141.097656 C 304.214844 141.050781 304.6875 140.820312 305.027344 140.414062 L 309.378906 135.234375 L 311.085938 133.164062 L 315.4375 127.988281 C 316.121094 127.15625 316.023438 125.917969 315.195312 125.203125 Z M 315.195312 125.203125 " fill-opacity="1" fill-rule="nonzero"/></g><g clip-path="url(#4612168042)"><path fill="#242e3e" d="M 172.277344 7.550781 L 172.300781 7.554688 Z M 202.011719 5.839844 C 192.484375 3.234375 182.132812 4.421875 173.351562 9.425781 L 47.496094 81.097656 C 35.8125 87.75 28.523438 100.234375 28.472656 113.667969 L 27.9375 259.101562 C 27.886719 272.453125 35.019531 284.953125 46.550781 291.710938 L 172.109375 365.335938 C 183.707031 372.132812 198.175781 372.226562 209.863281 365.574219 L 335.714844 293.902344 C 347.402344 287.246094 354.691406 274.765625 354.742188 261.328125 L 355.273438 115.894531 C 355.328125 102.542969 348.195312 90.046875 336.664062 83.285156 L 211.101562 9.664062 C 208.21875 7.976562 205.160156 6.699219 202.011719 5.839844 Z M 180.050781 373.324219 C 176.539062 372.363281 173.132812 370.945312 169.917969 369.0625 L 44.359375 295.441406 C 31.503906 287.902344 23.554688 273.972656 23.609375 259.085938 L 24.144531 113.652344 C 24.199219 98.675781 32.328125 84.757812 45.355469 77.339844 L 171.207031 5.671875 C 184.230469 -1.746094 200.359375 -1.640625 213.292969 5.9375 L 338.855469 79.558594 C 351.710938 87.097656 359.660156 101.027344 359.605469 115.910156 L 359.070312 261.347656 C 359.011719 276.324219 350.886719 290.238281 337.859375 297.65625 L 212.003906 369.328125 C 202.214844 374.902344 190.671875 376.230469 180.050781 373.324219 " fill-opacity="1" fill-rule="nonzero"/></g></svg>